<svg width="221" height="62" viewBox="0 0 221 62" fill="none" xmlns="http://www.w3.org/2000/svg">
<g clip-path="url(#clip0_17_36)">
<path d="M61.752 43.7987V18.0617C61.752 8.11383 53.6939 0.0598145 43.7409 0.0598145H17.9908C8.03786 0.0598145 -0.0202637 8.11383 -0.0202637 18.0617V43.7987C-0.0202637 53.1087 7.04057 60.7441 16.096 61.701L34.9847 46.3704H14.7197V38.9942L34.9648 22.5672H15.5176V15.51H46.9921V22.8862L26.7471 39.3331H46.9921V46.7093L28.3826 61.8007H43.721C53.674 61.8007 61.752 53.7466 61.752 43.7987Z" fill="#A4F375"/>
<path d="M82.0173 0.0598301H89.4372C92.6884 0.0199587 95.1816 2.09327 95.1417 5.44247C95.1816 8.8116 92.6884 10.8251 89.4372 10.8052H84.3111V17.9621H82.0173M89.0383 8.71193C91.4517 8.71193 92.828 7.57559 92.828 5.44247C92.828 3.28941 91.4517 2.15308 89.0383 2.15308H84.2912V8.71193H89.0383Z" fill="#231F20"/>
<path d="M102.861 4.92414C106.232 4.86433 108.984 7.71514 108.924 11.5627C108.984 15.4103 106.232 18.2611 102.861 18.2013C99.5098 18.2611 96.7772 15.4103 96.8171 11.5627C96.7772 7.71514 99.5297 4.86433 102.861 4.92414ZM102.98 16.3872C105.134 16.3872 106.73 14.573 106.73 11.5627C106.73 8.57237 105.134 6.73828 102.98 6.73828H102.761C100.607 6.73828 99.0111 8.55243 99.0111 11.5627C99.0111 14.5531 100.607 16.3872 102.761 16.3872H102.98Z" fill="#231F20"/>
<path d="M117.341 4.92411C120.194 4.92411 122.248 6.61865 122.507 9.34984H120.333C120.214 8.57234 119.875 7.95434 119.376 7.45595C118.857 6.97749 118.219 6.73825 117.461 6.73825H117.242C114.788 6.69838 113.452 8.95112 113.492 11.5627C113.472 14.1743 114.788 16.427 117.242 16.3871H117.461C118.219 16.3871 118.837 16.1479 119.356 15.6694C119.875 15.191 120.194 14.553 120.333 13.7755H122.507C122.168 16.5067 120.214 18.2013 117.341 18.2013C113.572 18.2611 111.258 15.3305 111.298 11.5627C111.258 7.79485 113.572 4.88424 117.341 4.92411Z" fill="#231F20"/>
<path d="M130.865 4.92411C133.717 4.92411 135.772 6.61865 136.031 9.34984H133.837C133.717 8.57234 133.378 7.95434 132.879 7.45595C132.361 6.97749 131.722 6.73825 130.965 6.73825H130.745C128.292 6.69838 126.955 8.95112 126.995 11.5627C126.975 14.1743 128.292 16.427 130.745 16.3871H130.965C131.722 16.3871 132.341 16.1479 132.859 15.6694C133.378 15.191 133.697 14.553 133.837 13.7755H136.011C135.672 16.5067 133.717 18.2013 130.845 18.2013C127.075 18.2611 124.761 15.3305 124.801 11.5627C124.781 7.79485 127.075 4.88424 130.865 4.92411Z" fill="#231F20"/>
<path d="M150.432 5.18329V17.9621H148.238V7.5357L142.074 17.9621H139.083V5.18329H141.257V15.7093L147.579 5.18329" fill="#231F20"/>
<path d="M165.67 5.18329V17.9621H163.496V7.5357L157.333 17.9621H154.341V5.18329H156.515V15.7293L162.818 5.18329M158.051 0.0598145C158.171 1.41544 158.789 2.01351 159.906 2.01351C161.063 2.01351 161.681 1.35563 161.761 0.0598145H163.656C163.636 2.35242 162.26 3.42895 159.906 3.42895C157.552 3.42895 156.156 2.37235 156.136 0.0598145H158.051Z" fill="#231F20"/>
<path d="M174.885 4.92411C177.737 4.92411 179.792 6.61865 180.051 9.34984H177.877C177.757 8.57234 177.418 7.95434 176.92 7.45595C176.401 6.97749 175.763 6.73825 175.005 6.73825H174.785C172.332 6.69838 170.996 8.95112 171.016 11.5627C170.996 14.1743 172.312 16.427 174.785 16.3871H175.005C175.763 16.3871 176.381 16.1479 176.9 15.6694C177.418 15.191 177.737 14.553 177.877 13.7755H180.051C179.732 16.5067 177.757 18.2013 174.885 18.2013C171.115 18.2611 168.802 15.3305 168.842 11.5627C168.802 7.79485 171.115 4.88424 174.885 4.92411Z" fill="#231F20"/>
<path d="M187.511 11.7621L185.277 13.955V17.9621H183.123V5.18329H185.277V11.5228L191.52 5.18329H194.253L189.087 10.227L194.512 17.9621H191.879" fill="#231F20"/>
<path d="M201.373 4.92414C204.744 4.86433 207.477 7.71514 207.437 11.5627C207.477 15.4103 204.744 18.2611 201.373 18.2013C198.022 18.2611 195.29 15.4103 195.33 11.5627C195.29 7.71514 198.022 4.86433 201.373 4.92414ZM201.493 16.3872C203.647 16.3872 205.243 14.573 205.243 11.5627C205.243 8.57237 203.647 6.73828 201.493 6.73828H201.274C199.119 6.73828 197.524 8.55243 197.524 11.5627C197.524 14.5531 199.119 16.3872 201.274 16.3872H201.493Z" fill="#231F20"/>
<path d="M215.674 4.92414C218.866 4.88426 221.04 7.31641 221 10.5859V11.8817H211.964C212.044 14.892 213.899 16.427 215.674 16.3872H215.874C217.33 16.3872 218.487 15.6296 218.786 14.2142H220.96C220.481 16.746 218.347 18.2013 215.694 18.2013C212.463 18.2412 209.731 15.8489 209.77 11.5428C209.731 7.27655 212.623 4.88426 215.674 4.92414ZM218.826 10.1273C218.746 7.93442 217.45 6.75822 215.754 6.75822H215.535C213.999 6.75822 212.463 7.69519 212.064 10.1273H218.826Z" fill="#231F20"/>
<path d="M86.8641 26.8534C90.235 26.7936 92.9676 29.6444 92.9277 33.492C92.9875 37.3395 90.2549 40.1904 86.8641 40.1305C83.5132 40.1904 80.7607 37.3395 80.8205 33.492C80.7806 29.6244 83.5132 26.7936 86.8641 26.8534ZM86.9838 38.3164C89.1379 38.3164 90.7336 36.5022 90.7336 33.492C90.7336 30.5016 89.1379 28.6675 86.9838 28.6675H86.7644C84.6102 28.6675 82.9946 30.4817 82.9946 33.492C82.9946 36.4823 84.5903 38.3164 86.7644 38.3164H86.9838Z" fill="#231F20"/>
<path d="M95.9594 27.8103C96.1389 26.5942 96.5378 25.6174 97.1163 24.8798C98.0138 23.7235 99.5098 23.1453 101.564 23.1453H104.397C105.274 23.1453 105.593 22.8862 105.593 22.2283V21.8097H107.648V22.5672C107.648 24.3614 106.89 25.0592 104.716 25.0592H101.484C98.6322 25.0592 97.6149 26.5743 97.4952 29.9634C98.3529 28.6675 100.148 27.5511 102.103 27.5511C105.254 27.5113 107.767 29.9633 107.727 33.6116C107.787 37.2598 105.254 40.1904 101.744 40.1306C97.7944 40.1306 95.6802 37.2399 95.6802 32.4753C95.6802 30.5614 95.7799 29.0064 95.9594 27.8103ZM101.843 38.3363C104.097 38.3762 105.533 36.2431 105.513 33.6714C105.513 31.0798 104.018 29.2457 101.843 29.2457H101.684C99.5696 29.2457 97.9141 31 97.9141 33.472C97.9141 36.3228 99.41 38.3363 101.684 38.3363H101.843Z" fill="#231F20"/>
<path d="M130.566 38.0971V43.3003H128.511V39.8714H110.839V27.0926H113.013V38.0971H118.518V27.0926H120.692V38.0971H126.197V27.0926H128.372V38.0971" fill="#231F20"/>
<path d="M138.025 26.8534C141.237 26.8135 143.391 29.2456 143.371 32.5151V33.791H134.335C134.415 36.8013 136.27 38.3363 138.065 38.3164H138.265C139.721 38.3164 140.878 37.5588 141.177 36.1434H143.351C142.872 38.6752 140.738 40.1305 138.085 40.1305C134.854 40.1704 132.121 37.7781 132.161 33.4521C132.101 29.1858 134.974 26.8135 138.025 26.8534ZM141.197 32.0366C141.117 29.8437 139.801 28.6675 138.125 28.6675H137.906C136.39 28.6675 134.834 29.6045 134.455 32.0366H141.197Z" fill="#231F20"/>
<path d="M151.868 26.8534C154.72 26.8534 156.774 28.5479 157.034 31.2791H154.859C154.74 30.5016 154.421 29.8836 153.902 29.3852C153.383 28.9068 152.765 28.6675 151.987 28.6675H151.768C149.315 28.6276 147.978 30.8804 148.018 33.492C147.998 36.1035 149.315 38.3563 151.768 38.3164H151.987C152.745 38.3164 153.383 38.0772 153.882 37.5987C154.401 37.1203 154.72 36.4823 154.859 35.7048H157.034C156.694 38.436 154.74 40.1305 151.868 40.1305C148.098 40.1704 145.784 37.2598 145.824 33.492C145.784 29.7241 148.098 26.7936 151.868 26.8534Z" fill="#231F20"/>
<path d="M169.041 28.8868H164.793V39.8714H162.619V28.8868H158.37V27.0926H169.041" fill="#231F20"/>
<path d="M171.375 27.0926H177.398C180.011 27.0926 181.467 28.4881 181.467 30.3421C181.467 31.8971 180.61 32.9138 179.134 33.3724C180.45 33.472 181.787 34.5685 181.787 36.263C181.826 38.2965 179.991 39.9312 177.518 39.8913H171.375M177.119 32.5151C178.456 32.5151 179.273 31.7576 179.273 30.5415C179.273 29.3852 178.436 28.7473 176.92 28.7473H173.569V32.4952H177.119V32.5151ZM177.099 38.2167C178.795 38.2167 179.612 37.4592 179.612 36.1235C179.612 35.0071 178.775 34.2695 177.179 34.2695H173.589V38.2367H177.099V38.2167Z" fill="#231F20"/>
<path d="M190.224 26.8534C193.595 26.7936 196.327 29.6444 196.287 33.492C196.347 37.3395 193.614 40.1904 190.224 40.1305C186.873 40.1904 184.14 37.3395 184.18 33.492C184.14 29.6244 186.893 26.7936 190.224 26.8534ZM190.343 38.3164C192.498 38.3164 194.093 36.5022 194.093 33.492C194.093 30.5016 192.498 28.6675 190.343 28.6675H190.124C187.97 28.6675 186.374 30.4817 186.374 33.492C186.374 36.4823 187.97 38.3164 190.124 38.3164H190.343Z" fill="#231F20"/>
<path d="M93.9449 54.0656C94.5632 54.7235 94.8624 55.5807 94.8624 56.6572C94.8624 60.0264 92.1498 62.0598 87.9811 62.0598C83.4135 62.0598 80.8604 59.8669 80.6211 55.9395H84.0717C84.3909 58.0328 85.6674 59.0096 88.0609 59.0096C90.2549 59.0096 91.4118 58.1923 91.4118 56.5974C91.4118 55.1022 90.3547 54.3247 88.3401 54.3247H85.8868V51.2347H88.1606C90.1153 51.2347 91.1924 50.3575 91.1924 48.8424C91.1924 47.5067 90.0754 46.6694 88.021 46.6694C86.8641 46.6694 85.9666 46.9485 85.3283 47.5466C84.71 48.1247 84.351 48.9022 84.2313 49.8392H80.7807C80.8205 48.8823 81.0798 47.9453 81.5785 46.9884C82.0771 46.0315 82.855 45.2341 83.9321 44.5961C84.9892 43.9582 86.3256 43.6392 87.9612 43.6392C92.2894 43.6392 94.663 45.7325 94.663 48.8225C94.663 50.6366 93.5659 52.1119 91.5714 52.71C92.5288 52.9691 93.3465 53.4077 93.9449 54.0656Z" fill="#231F20"/>
<path d="M97.7944 49.0219H101.125V53.8463H106.052V49.0219H109.383V61.8006H106.052V56.5376H101.125V61.8006H97.7944" fill="#231F20"/>
<path d="M112.096 55.4013C112.056 51.1151 114.728 48.7228 117.601 48.7627C119.515 48.7627 120.872 49.6399 121.43 50.7961V49.0019H124.761V61.8006H121.43V60.0064C120.772 61.1627 119.476 62.0399 117.601 62.0399C114.948 62.0797 112.036 59.6675 112.096 55.4013ZM118.518 59.3685C120.134 59.3685 121.43 57.8534 121.43 55.4212C121.43 52.9691 120.134 51.474 118.518 51.474H118.319C116.763 51.4341 115.387 53.1884 115.427 55.4013C115.407 57.6341 116.763 59.4283 118.319 59.3884H118.518V59.3685Z" fill="#231F20"/>
<path d="M128.192 49.0219H131.503V53.8463H136.449V49.0219H139.78V61.8006H136.449V56.5376H131.503V61.8006H128.192" fill="#231F20"/>
<path d="M155.637 49.0219V61.8006H152.306V52.5903L147.639 61.8006H143.191V49.0219H146.522V58.1325L151.189 49.0219" fill="#231F20"/>
<path d="M158.35 55.4013C158.31 51.5736 160.684 48.7029 164.434 48.7627C168.163 48.7228 170.298 51.5138 170.258 55.2617C170.258 55.5209 170.238 55.9196 170.218 56.4579H161.581C161.701 58.1724 163.077 59.3685 164.473 59.3685H164.693C165.89 59.3685 166.707 58.6907 166.947 57.7537H170.238C169.619 60.3055 167.585 62.0399 164.453 62.0399C161.222 62.0997 158.29 59.4881 158.35 55.4013ZM167.046 53.9061C166.967 52.391 165.81 51.454 164.414 51.454H164.214C162.818 51.454 161.661 52.391 161.581 53.9061H167.046Z" fill="#231F20"/>
</g>
<defs>
<clipPath id="clip0_17_36">
<rect width="221" height="62" fill="white"/>
</clipPath>
</defs>
</svg>
